<svg version="1.1" xmlns="http://www.w3.org/2000/svg" xmlns:xlink="http://www.w3.org/1999/xlink" width="150" height="150" viewBox="0,0,150,150"><g fill="#00ff00" fill-rule="nonzero" stroke="none" stroke-width="1" stroke-linecap="butt" stroke-linejoin="miter" stroke-miterlimit="10" stroke-dasharray="" stroke-dashoffset="0" font-family="none" font-weight="none" font-size="none" text-anchor="none" style="mix-blend-mode: normal"><path d="M0,10v-10h10v10z"></path><path d="M10,10v-10h10v10z"></path><path d="M20,10v-10h10v10z"></path><path d="M30,10v-10h10v10z"></path><path d="M40,10v-10h10v10z"></path><path d="M50,10v-10h10v10z"></path><path d="M60,10v-10h10v10z"></path><path d="M70,10v-10h10v10z"></path><path d="M80,10v-10h10v10z"></path><path d="M90,10v-10h10v10z"></path><path d="M100,10v-10h10v10z"></path><path d="M110,10v-10h10v10z"></path><path d="M120,10v-10h10v10z"></path><path d="M130,10v-10h10v10z"></path><path d="M140,10v-10h10v10z"></path><path d="M0,20v-10h10v10z"></path><path d="M10,20v-10h10v10z"></path><path d="M20,20v-10h10v10z"></path><path d="M30,20v-10h10v10z"></path><path d="M40,20v-10h10v10z"></path><path d="M50,20v-10h10v10z"></path><path d="M60,20v-10h10v10z"></path><path d="M70,20v-10h10v10z"></path><path d="M80,20v-10h10v10z"></path><path d="M90,20v-10h10v10z"></path><path d="M100,20v-10h10v10z"></path><path d="M110,20v-10h10v10z"></path><path d="M120,20v-10h10v10z"></path><path d="M130,20v-10h10v10z"></path><path d="M140,20v-10h10v10z"></path><path d="M0,30v-10h10v10z"></path><path d="M10,30v-10h10v10z"></path><path d="M20,30v-10h10v10z"></path><path d="M30,30v-10h10v10z"></path><path d="M40,30v-10h10v10z"></path><path d="M50,30v-10h10v10z"></path><path d="M60,30v-10h10v10z"></path><path d="M70,30v-10h10v10z"></path><path d="M80,30v-10h10v10z"></path><path d="M90,30v-10h10v10z"></path><path d="M100,30v-10h10v10z"></path><path d="M110,30v-10h10v10z"></path><path d="M120,30v-10h10v10z"></path><path d="M130,30v-10h10v10z"></path><path d="M140,30v-10h10v10z"></path><path d="M0,40v-10h10v10z"></path><path d="M10,40v-10h10v10z"></path><path d="M20,40v-10h10v10z"></path><path d="M30,40v-10h10v10z"></path><path d="M40,40v-10h10v10z"></path><path d="M50,40v-10h10v10z"></path><path d="M60,40v-10h10v10z"></path><path d="M70,40v-10h10v10z"></path><path d="M80,40v-10h10v10z"></path><path d="M90,40v-10h10v10z"></path><path d="M100,40v-10h10v10z"></path><path d="M110,40v-10h10v10z"></path><path d="M120,40v-10h10v10z"></path><path d="M130,40v-10h10v10z"></path><path d="M140,40v-10h10v10z"></path><path d="M0,50v-10h10v10z"></path><path d="M10,50v-10h10v10z"></path><path d="M20,50v-10h10v10z"></path><path d="M30,50v-10h10v10z"></path><path d="M40,50v-10h10v10z"></path><path d="M50,50v-10h10v10z"></path><path d="M60,50v-10h10v10z"></path><path d="M70,50v-10h10v10z"></path><path d="M80,50v-10h10v10z"></path><path d="M90,50v-10h10v10z"></path><path d="M100,50v-10h10v10z"></path><path d="M110,50v-10h10v10z"></path><path d="M120,50v-10h10v10z"></path><path d="M130,50v-10h10v10z"></path><path d="M140,50v-10h10v10z"></path><path d="M0,60v-10h10v10z"></path><path d="M10,60v-10h10v10z"></path><path d="M20,60v-10h10v10z"></path><path d="M30,60v-10h10v10z"></path><path d="M40,60v-10h10v10z"></path><path d="M50,60v-10h10v10z"></path><path d="M60,60v-10h10v10z"></path><path d="M70,60v-10h10v10z"></path><path d="M80,60v-10h10v10z"></path><path d="M90,60v-10h10v10z"></path><path d="M100,60v-10h10v10z"></path><path d="M110,60v-10h10v10z"></path><path d="M120,60v-10h10v10z"></path><path d="M130,60v-10h10v10z"></path><path d="M140,60v-10h10v10z"></path><path d="M0,70v-10h10v10z"></path><path d="M10,70v-10h10v10z"></path><path d="M20,70v-10h10v10z"></path><path d="M30,70v-10h10v10z"></path><path d="M40,70v-10h10v10z"></path><path d="M50,70v-10h10v10z"></path><path d="M60,70v-10h10v10z"></path><path d="M70,70v-10h10v10z"></path><path d="M80,70v-10h10v10z"></path><path d="M90,70v-10h10v10z"></path><path d="M100,70v-10h10v10z"></path><path d="M110,70v-10h10v10z"></path><path d="M120,70v-10h10v10z"></path><path d="M130,70v-10h10v10z"></path><path d="M140,70v-10h10v10z"></path><path d="M0,80v-10h10v10z"></path><path d="M10,80v-10h10v10z"></path><path d="M20,80v-10h10v10z"></path><path d="M30,80v-10h10v10z"></path><path d="M40,80v-10h10v10z"></path><path d="M50,80v-10h10v10z"></path><path d="M60,80v-10h10v10z"></path><path d="M70,80v-10h10v10z"></path><path d="M80,80v-10h10v10z"></path><path d="M90,80v-10h10v10z"></path><path d="M100,80v-10h10v10z"></path><path d="M110,80v-10h10v10z"></path><path d="M120,80v-10h10v10z"></path><path d="M130,80v-10h10v10z"></path><path d="M140,80v-10h10v10z"></path><path d="M0,90v-10h10v10z"></path><path d="M10,90v-10h10v10z"></path><path d="M20,90v-10h10v10z"></path><path d="M30,90v-10h10v10z"></path><path d="M40,90v-10h10v10z"></path><path d="M50,90v-10h10v10z"></path><path d="M60,90v-10h10v10z"></path><path d="M70,90v-10h10v10z"></path><path d="M80,90v-10h10v10z"></path><path d="M90,90v-10h10v10z"></path><path d="M100,90v-10h10v10z"></path><path d="M110,90v-10h10v10z"></path><path d="M120,90v-10h10v10z"></path><path d="M130,90v-10h10v10z"></path><path d="M140,90v-10h10v10z"></path><path d="M0,100v-10h10v10z"></path><path d="M10,100v-10h10v10z"></path><path d="M20,100v-10h10v10z"></path><path d="M30,100v-10h10v10z"></path><path d="M40,100v-10h10v10z"></path><path d="M50,100v-10h10v10z"></path><path d="M60,100v-10h10v10z"></path><path d="M70,100v-10h10v10z"></path><path d="M80,100v-10h10v10z"></path><path d="M90,100v-10h10v10z"></path><path d="M100,100v-10h10v10z"></path><path d="M110,100v-10h10v10z"></path><path d="M120,100v-10h10v10z"></path><path d="M130,100v-10h10v10z"></path><path d="M140,100v-10h10v10z"></path><path d="M0,110v-10h10v10z"></path><path d="M10,110v-10h10v10z"></path><path d="M20,110v-10h10v10z"></path><path d="M30,110v-10h10v10z"></path><path d="M40,110v-10h10v10z"></path><path d="M50,110v-10h10v10z"></path><path d="M60,110v-10h10v10z"></path><path d="M70,110v-10h10v10z"></path><path d="M80,110v-10h10v10z"></path><path d="M90,110v-10h10v10z"></path><path d="M100,110v-10h10v10z"></path><path d="M110,110v-10h10v10z"></path><path d="M120,110v-10h10v10z"></path><path d="M130,110v-10h10v10z"></path><path d="M140,110v-10h10v10z"></path><path d="M0,120v-10h10v10z"></path><path d="M10,120v-10h10v10z"></path><path d="M20,120v-10h10v10z"></path><path d="M30,120v-10h10v10z"></path><path d="M40,120v-10h10v10z"></path><path d="M50,120v-10h10v10z"></path><path d="M60,120v-10h10v10z"></path><path d="M70,120v-10h10v10z"></path><path d="M80,120v-10h10v10z"></path><path d="M90,120v-10h10v10z"></path><path d="M100,120v-10h10v10z"></path><path d="M110,120v-10h10v10z"></path><path d="M120,120v-10h10v10z"></path><path d="M130,120v-10h10v10z"></path><path d="M140,120v-10h10v10z"></path><path d="M0,130v-10h10v10z"></path><path d="M10,130v-10h10v10z"></path><path d="M20,130v-10h10v10z"></path><path d="M30,130v-10h10v10z"></path><path d="M40,130v-10h10v10z"></path><path d="M50,130v-10h10v10z"></path><path d="M60,130v-10h10v10z"></path><path d="M70,130v-10h10v10z"></path><path d="M80,130v-10h10v10z"></path><path d="M90,130v-10h10v10z"></path><path d="M100,130v-10h10v10z"></path><path d="M110,130v-10h10v10z"></path><path d="M120,130v-10h10v10z"></path><path d="M130,130v-10h10v10z"></path><path d="M140,130v-10h10v10z"></path><path d="M0,140v-10h10v10z"></path><path d="M10,140v-10h10v10z"></path><path d="M20,140v-10h10v10z"></path><path d="M30,140v-10h10v10z"></path><path d="M40,140v-10h10v10z"></path><path d="M50,140v-10h10v10z"></path><path d="M60,140v-10h10v10z"></path><path d="M70,140v-10h10v10z"></path><path d="M80,140v-10h10v10z"></path><path d="M90,140v-10h10v10z"></path><path d="M100,140v-10h10v10z"></path><path d="M110,140v-10h10v10z"></path><path d="M120,140v-10h10v10z"></path><path d="M130,140v-10h10v10z"></path><path d="M140,140v-10h10v10z"></path><path d="M0,150v-10h10v10z"></path><path d="M10,150v-10h10v10z"></path><path d="M20,150v-10h10v10z"></path><path d="M30,150v-10h10v10z"></path><path d="M40,150v-10h10v10z"></path><path d="M50,150v-10h10v10z"></path><path d="M60,150v-10h10v10z"></path><path d="M70,150v-10h10v10z"></path><path d="M80,150v-10h10v10z"></path><path d="M90,150v-10h10v10z"></path><path d="M100,150v-10h10v10z"></path><path d="M110,150v-10h10v10z"></path><path d="M120,150v-10h10v10z"></path><path d="M130,150v-10h10v10z"></path><path d="M140,150v-10h10v10z"></path></g></svg>